#N canvas 827 239 527 327 12;
#X obj 21 66 nbx 4 14 -1e+37 1e+37 0 0 empty empty empty 0 -8 0 10 #dcdcdc #000000 #000000 0 256;
#X text 73 42 rate in Hz;
#X msg 33 91 0;
#X obj 19 143 vsl 22 80 0 127 0 0 dsfsdgs sddfjhgj empty 0 -9 0 10 #dcdcdc #000000 #000000 0 1;
#X text 57 90 <= phase reset;
#X obj 17 116 else/lfo -tri 0.25;
#X floatatom 17 238 5 0 0 0 - - - 12;
#X obj 17 265 int;
#X text 57 140 -> CTLOUT;
#X obj 17 11 knob 50 0.001 2 0 0 empty empty #E4E4E4 #A8A8A8 #4D4D4D 1 0 0 0 1 270 0 0 0.001;
#X obj 56 259 tgl 25 0 empty empty enable 17 7 0 10 #e4e4e4 #4d4d4d #373737 0 1;
#X obj 17 293 spigot;
#X obj 67 207 loadbang;
#X msg 67 233 1;
#X obj 156 66 nbx 4 14 -1e+37 1e+37 0 0 empty empty empty 0 -8 0 10 #dcdcdc #000000 #000000 0 256;
#X text 208 42 rate in Hz;
#X msg 168 91 0;
#X obj 154 143 vsl 22 80 0 127 0 0 dsfsdgs sddfjhgj empty 0 -9 0 10 #dcdcdc #000000 #000000 0 1;
#X text 192 90 <= phase reset;
#X obj 152 116 else/lfo -tri 0.25;
#X floatatom 152 238 5 0 0 0 - - - 12;
#X obj 152 265 int;
#X text 192 140 -> CTLOUT;
#X obj 152 11 knob 50 0.001 2 0 0 empty empty #E4E4E4 #A8A8A8 #4D4D4D 1 0 0 0 1 270 0 0 0.001;
#X obj 191 259 tgl 25 0 empty empty enable 17 7 0 10 #e4e4e4 #4d4d4d #373737 0 1;
#X obj 152 293 spigot;
#X obj 202 207 loadbang;
#X msg 202 233 1;
#X obj 291 66 nbx 4 14 -1e+37 1e+37 0 0 empty empty empty 0 -8 0 10 #dcdcdc #000000 #000000 0 256;
#X text 343 42 rate in Hz;
#X msg 303 91 0;
#X obj 289 143 vsl 22 80 0 127 0 0 dsfsdgs sddfjhgj empty 0 -9 0 10 #dcdcdc #000000 #000000 0 1;
#X text 327 90 <= phase reset;
#X obj 287 116 else/lfo -tri 0.25;
#X floatatom 287 238 5 0 0 0 - - - 12;
#X obj 287 265 int;
#X text 327 140 -> CTLOUT;
#X obj 287 11 knob 50 0.001 2 0 0 empty empty #E4E4E4 #A8A8A8 #4D4D4D 1 0 0 0 1 270 0 0 0.001;
#X obj 326 259 tgl 25 0 empty empty enable 17 7 0 10 #e4e4e4 #4d4d4d #373737 0 1;
#X obj 287 293 spigot;
#X obj 337 207 loadbang;
#X msg 337 233 1;
#X obj 17 320 ctlout 0 1;
#X obj 152 320 ctlout 1 1;
#X obj 287 320 ctlout 2 1;
#X connect 0 0 5 0;
#X connect 2 0 5 1;
#X connect 3 0 6 0;
#X connect 5 0 3 0;
#X connect 6 0 7 0;
#X connect 7 0 11 0;
#X connect 9 0 0 0;
#X connect 10 0 11 1;
#X connect 11 0 42 0;
#X connect 12 0 13 0;
#X connect 13 0 10 0;
#X connect 14 0 19 0;
#X connect 16 0 19 1;
#X connect 17 0 20 0;
#X connect 19 0 17 0;
#X connect 20 0 21 0;
#X connect 21 0 25 0;
#X connect 23 0 14 0;
#X connect 24 0 25 1;
#X connect 25 0 43 0;
#X connect 26 0 27 0;
#X connect 27 0 24 0;
#X connect 28 0 33 0;
#X connect 30 0 33 1;
#X connect 31 0 34 0;
#X connect 33 0 31 0;
#X connect 34 0 35 0;
#X connect 35 0 39 0;
#X connect 37 0 28 0;
#X connect 38 0 39 1;
#X connect 39 0 44 0;
#X connect 40 0 41 0;
#X connect 41 0 38 0;
